# xmcd CD database file
#
# Track frame offsets:
#	150
#	11897
#	24524
#	36776
#	51630
#	67228
#	85049
#	98428
#	113582
#	127038
#	139110
#	153146
#	176247
#	186554
#	200425
#	209850
#	220019
#	228151
#	238685
#	249445
#	261312
#	273715
#
# Disc length: 3769 seconds
#
# Revision: 1
# Processed by: cddbd v1.5.2PL0 Copyright (c) Steve Scherf et al.
# Submitted via: CDex 1.51
#
DISCID=4c0eb716
DTITLE=Georgie Fame - Sweet Things
DYEAR=1900
DGENRE=Rock
TTITLE0=Sweet Thing
TTITLE1=See Saw
TTITLE2=Ride Your Pony
TTITLE3=Funny How Time Slips Away (Version 1)
TTITLE4=Sitting In The Park
TTITLE5=Dr. Kitch
TTITLE6=My Girl
TTITLE7=Music Talk
TTITLE8=The In Crowd
TTITLE9=The World Is Round
TTITLE10=The Whole World's Shaking
TTITLE11=Last Night
TTITLE12=Like We Used To Be
TTITLE13=It Ain't Right
TTITLE14=No No
TTITLE15=Blue Monday
TTITLE16=So Long
TTITLE17=Sick And Tired
TTITLE18=Move It On Over
TTITLE19=Walking The Dog
TTITLE20=Hi Heel Sneakers
TTITLE21=Rockin' Pneumonia And The Boogie Woogie Flu
EXTD=
EXTT0=
EXTT1=
EXTT2=
EXTT3=
EXTT4=
EXTT5=
EXTT6=
EXTT7=
EXTT8=
EXTT9=
EXTT10=
EXTT11=
EXTT12=
EXTT13=
EXTT14=
EXTT15=
EXTT16=
EXTT17=
EXTT18=
EXTT19=
EXTT20=
EXTT21=
PLAYORDER=
